<?xml version="1.0" encoding="UTF-8" standalone="no"?>
<svg width="331px" height="189px" viewBox="0 0 331 189" version="1.1" xmlns="http://www.w3.org/2000/svg" xmlns:xlink="http://www.w3.org/1999/xlink">
    <!-- Generator: Sketch 42 (36781) - http://www.bohemiancoding.com/sketch -->
    <title>Page 1</title>
    <desc>Created with Sketch.</desc>
    <defs>
        <polygon id="path-1" points="178.815882 189 0 189 0 0.657 330.844 0.657 330.844 189 178.815882 189 178.815882 64.7710244 2.9225278e-05 64.7710244 2.9225278e-05 189.000126 178.815882 189.000126"></polygon>
    </defs>
    <g id="Page-1" stroke="none" stroke-width="1" fill="none" fill-rule="evenodd">
        <g transform="translate(0.000000, -1.000000)">
            <path d="M279.6864,56.3112 C279.6864,63.6422 273.7434,69.5852 266.4124,69.5852 C259.0814,69.5852 253.1384,63.6422 253.1384,56.3112 C253.1384,48.9802 259.0814,43.0372 266.4124,43.0372 C273.7434,43.0372 279.6864,48.9802 279.6864,56.3112" id="Fill-1" fill="#FFFFFF"></path>
            <path d="M248.8056,85.947 C248.7056,85.887 248.6156,85.827 248.5256,85.777 C248.5856,85.807 248.6456,85.847 248.7056,85.897 C248.8056,85.967 248.9056,86.027 249.0156,86.087 C248.9456,86.037 248.8756,85.997 248.8056,85.947 L248.8056,85.947 Z M249.4556,86.357 C249.4956,86.387 249.5256,86.407 249.5556,86.427 C249.6156,86.457 249.6656,86.487 249.7156,86.517 C249.6256,86.467 249.5456,86.417 249.4556,86.357 L249.4556,86.357 Z M254.4056,88.927 L254.3856,88.927 L254.5956,89.017 C254.5356,88.987 254.4656,88.957 254.4056,88.927 L254.4056,88.927 Z M256.0656,89.627 C256.0356,89.617 256.0056,89.607 255.9756,89.597 C256.0356,89.627 256.1056,89.647 256.1656,89.677 C256.2856,89.717 256.3956,89.767 256.5156,89.807 C256.3656,89.747 256.2156,89.687 256.0656,89.627 L256.0656,89.627 Z M261.7256,65.747 C261.7156,65.767 261.7156,65.797 261.7156,65.817 L261.7156,65.837 L261.7156,65.877 C261.7156,65.857 261.7156,65.837 261.7356,65.807 C261.7356,65.777 261.7456,65.737 261.7756,65.697 C261.7556,65.697 261.7456,65.717 261.7256,65.747 L261.7256,65.747 Z M250.1156,35.537 C250.1056,35.557 250.0956,35.577 250.0856,35.587 C250.0956,35.567 250.1156,35.557 250.1256,35.537 L250.1156,35.537 Z M252.0056,33.147 C251.9756,33.197 251.9356,33.247 251.9056,33.297 C251.9656,33.217 252.0256,33.147 252.0756,33.067 C252.0556,33.097 252.0356,33.117 252.0056,33.147 L252.0056,33.147 Z M252.2456,32.827 C252.2256,32.857 252.1956,32.897 252.1756,32.937 C252.2156,32.897 252.2356,32.857 252.2656,32.817 C252.2556,32.827 252.2556,32.827 252.2456,32.827 L252.2456,32.827 Z M246.0556,83.957 C246.0356,83.947 246.0156,83.927 245.9856,83.907 C246.1556,84.067 246.3356,84.207 246.5156,84.337 C246.3656,84.207 246.2056,84.087 246.0556,83.957 L246.0556,83.957 Z M244.7856,82.397 C244.7156,82.447 244.6456,82.487 244.5756,82.537 C244.5556,82.557 244.5456,82.567 244.5256,82.587 L244.5156,82.597 C244.5556,82.627 244.5856,82.667 244.6256,82.697 L244.6256,82.707 C244.6356,82.717 244.6356,82.717 244.6456,82.717 L244.6356,82.697 C244.6656,82.597 244.7056,82.497 244.7856,82.397 L244.7856,82.397 Z M243.4956,79.927 C243.4656,79.927 243.4356,79.917 243.3956,79.907 C243.4356,79.927 243.4756,79.937 243.5056,79.937 C243.4956,79.937 243.4956,79.927 243.4956,79.927 L243.4956,79.927 Z M279.0956,67.297 C279.0856,67.297 279.0756,67.287 279.0556,67.287 C279.0756,67.297 279.1056,67.317 279.1356,67.327 C279.1256,67.317 279.1056,67.307 279.0956,67.297 L279.0956,67.297 Z M269.0956,11.507 L269.0956,11.537 C269.0956,11.517 269.1056,11.497 269.1056,11.487 C269.1056,11.497 269.1056,11.497 269.0956,11.507 L269.0956,11.507 Z M268.4056,24.767 C268.5156,24.757 268.5756,24.577 268.6056,24.197 C268.5356,24.387 268.4756,24.567 268.4056,24.767 L268.4056,24.767 Z M269.1656,10.107 C269.1556,10.127 269.1356,10.147 269.1156,10.167 C269.1356,10.147 269.1556,10.137 269.1756,10.117 C269.1856,10.097 269.1956,10.087 269.2156,10.067 C269.1956,10.077 269.1856,10.097 269.1656,10.107 L269.1656,10.107 Z M269.0956,10.187 C269.0656,10.227 269.0356,10.257 268.9956,10.307 C269.0456,10.257 269.0756,10.227 269.1056,10.187 L269.0956,10.187 Z M263.0556,15.137 C262.9656,15.217 262.8756,15.287 262.7856,15.357 C262.8856,15.287 262.9756,15.217 263.0756,15.147 C263.0756,15.147 263.0656,15.137 263.0556,15.137 L263.0556,15.137 Z" id="Fill-3" fill="#FFFFFF"></path>
            <path d="M244.5756,82.5368 C244.5556,82.5568 244.5456,82.5668 244.5256,82.5868 C244.5556,82.6268 244.5956,82.6668 244.6256,82.6968 L244.6356,82.6968 C244.6656,82.5968 244.7056,82.4968 244.7856,82.3968 C244.7156,82.4468 244.6456,82.4868 244.5756,82.5368 L244.5756,82.5368 Z M279.0956,67.2968 C279.0856,67.2968 279.0756,67.2868 279.0556,67.2868 C279.0756,67.2968 279.1056,67.3168 279.1356,67.3268 C279.1256,67.3168 279.1056,67.3068 279.0956,67.2968 L279.0956,67.2968 Z M268.4056,24.7668 C268.5156,24.7568 268.5756,24.5768 268.6056,24.1968 C268.5356,24.3868 268.4756,24.5668 268.4056,24.7668 L268.4056,24.7668 Z M269.1656,10.1068 C269.1556,10.1268 269.1356,10.1468 269.1156,10.1668 C269.1356,10.1468 269.1556,10.1368 269.1756,10.1168 C269.1856,10.0968 269.1956,10.0868 269.2156,10.0668 C269.1956,10.0768 269.1856,10.0968 269.1656,10.1068 L269.1656,10.1068 Z M269.0956,10.1868 C269.0656,10.2268 269.0356,10.2568 268.9956,10.3068 C269.0456,10.2568 269.0756,10.2268 269.1056,10.1868 L269.0956,10.1868 Z M269.0956,11.5068 L269.0956,11.5368 C269.0956,11.5168 269.1056,11.4968 269.1056,11.4868 C269.1056,11.4968 269.1056,11.4968 269.0956,11.5068 L269.0956,11.5068 Z M263.0556,15.1368 C262.9656,15.2168 262.8756,15.2868 262.7856,15.3568 C262.8856,15.2868 262.9756,15.2168 263.0756,15.1468 C263.0756,15.1468 263.0656,15.1368 263.0556,15.1368 L263.0556,15.1368 Z M261.7156,65.8168 L261.7156,65.8368 L261.7156,65.8768 C261.7156,65.8568 261.7156,65.8368 261.7356,65.8068 C261.7356,65.8068 261.7256,65.8068 261.7156,65.8168 L261.7156,65.8168 Z M250.1156,35.5368 C250.1056,35.5568 250.0956,35.5768 250.0856,35.5868 C250.0956,35.5668 250.1156,35.5568 250.1256,35.5368 L250.1156,35.5368 Z M252.0056,33.1468 C251.9756,33.1968 251.9356,33.2468 251.9056,33.2968 C251.9656,33.2168 252.0256,33.1468 252.0756,33.0668 C252.0556,33.0968 252.0356,33.1168 252.0056,33.1468 L252.0056,33.1468 Z M252.2456,32.8268 C252.2256,32.8568 252.1956,32.8968 252.1756,32.9368 C252.2156,32.8968 252.2356,32.8568 252.2656,32.8168 C252.2556,32.8268 252.2556,32.8268 252.2456,32.8268 L252.2456,32.8268 Z" id="Fill-5" fill="#A2A3A1"></path>
            <path d="M252.0058,33.1467 C251.9758,33.1967 251.9358,33.2467 251.9058,33.2967 C251.9658,33.2167 252.0258,33.1467 252.0758,33.0667 C252.0558,33.0967 252.0358,33.1167 252.0058,33.1467" id="Fill-7" fill="#4F504D"></path>
            <path d="M279.0556,67.2868 C279.0756,67.2868 279.0856,67.2968 279.0956,67.2968 C279.1056,67.3068 279.1256,67.3168 279.1356,67.3268 C279.1056,67.3168 279.0756,67.2968 279.0556,67.2868 M261.7356,65.8068 C261.7156,65.8368 261.7156,65.8568 261.7156,65.8768 L261.7156,65.8368 L261.7156,65.8168 C261.7156,65.7968 261.7156,65.7668 261.7256,65.7468 C261.7456,65.7168 261.7556,65.6968 261.7756,65.6968 C261.7456,65.7368 261.7356,65.7768 261.7356,65.8068 M260.5456,67.1768 C260.5956,67.1568 260.6456,67.1368 260.6956,67.1068 C260.7156,67.0968 260.7356,67.0968 260.7456,67.0968 C260.6856,67.1368 260.6156,67.1568 260.5456,67.1768 M252.1756,32.9368 C252.1956,32.8968 252.2256,32.8568 252.2456,32.8268 C252.2556,32.8268 252.2556,32.8268 252.2656,32.8168 C252.2356,32.8568 252.2156,32.8968 252.1756,32.9368 M251.9056,33.2968 C251.9356,33.2468 251.9756,33.1968 252.0056,33.1468 C252.0356,33.1168 252.0556,33.0968 252.0756,33.0668 C252.0256,33.1468 251.9656,33.2168 251.9056,33.2968 M250.0856,35.5868 C250.0956,35.5768 250.1056,35.5568 250.1156,35.5368 L250.1256,35.5368 C250.1156,35.5568 250.0956,35.5668 250.0856,35.5868 M243.3956,79.9068 C243.4356,79.9168 243.4656,79.9268 243.4956,79.9268 C243.4956,79.9268 243.4956,79.9368 243.5056,79.9368 C243.4756,79.9368 243.4356,79.9268 243.3956,79.9068 M263.0556,15.1368 C263.0656,15.1368 263.0756,15.1468 263.0756,15.1468 C262.9756,15.2168 262.8856,15.2868 262.7856,15.3568 C262.8756,15.2868 262.9656,15.2168 263.0556,15.1368 M268.6056,24.1968 C268.5756,24.5768 268.5156,24.7568 268.4056,24.7668 C268.4756,24.5668 268.5356,24.3868 268.6056,24.1968 M269.0956,10.1868 L269.1056,10.1868 C269.0756,10.2268 269.0456,10.2568 268.9956,10.3068 C269.0356,10.2568 269.0656,10.2268 269.0956,10.1868 M269.1656,10.1068 C269.1856,10.0968 269.1956,10.0768 269.2156,10.0668 C269.1956,10.0868 269.1856,10.0968 269.1756,10.1168 C269.1556,10.1368 269.1356,10.1468 269.1156,10.1668 C269.1356,10.1468 269.1556,10.1268 269.1656,10.1068 M269.0956,11.5368 L269.0956,11.5068 C269.1056,11.4968 269.1056,11.4968 269.1056,11.4868 C269.1056,11.4968 269.0956,11.5168 269.0956,11.5368" id="Fill-9" fill="#4F504D"></path>
            <path d="M318.2157,74.8566 C318.2057,74.8566 318.2057,74.8666 318.1957,74.8666 C317.4257,75.4166 316.5357,75.9766 315.6157,76.4766 C315.0857,77.2066 312.9957,78.2466 310.8757,78.8266 C308.6757,79.4266 305.1457,80.5566 303.0357,81.3366 L300.8457,82.1466 C300.9857,82.8366 301.5957,84.0066 302.4757,85.2666 L303.6257,86.1566 C303.5557,86.3166 303.5057,86.4966 303.4757,86.6666 C303.4557,86.7466 303.4457,86.8266 303.4357,86.8966 C303.4257,86.9966 303.4157,87.0966 303.4157,87.1866 C303.4157,87.3066 303.4257,87.4366 303.4457,87.5566 C303.5957,88.4166 303.7357,89.3566 303.8057,90.3066 C303.8057,90.3366 303.8057,90.3776 303.8157,90.4066 C303.8157,90.4666 303.8257,90.5366 303.8257,90.6066 C303.8357,90.7566 303.8357,90.9066 303.8357,91.0566 C303.8557,91.3466 303.8457,91.6466 303.8357,91.9466 C303.8157,92.2766 303.7857,92.6066 303.7357,92.9266 C303.7157,93.0466 303.6957,93.1766 303.6657,93.2966 C303.6557,93.3366 303.6557,93.3776 303.6457,93.4166 C303.5157,93.6866 303.3757,93.9566 303.2357,94.2266 C303.0257,94.5066 302.7957,94.7566 302.5357,94.9866 L302.5157,95.0066 C302.4057,95.1066 302.2957,95.1966 302.1857,95.2866 C302.1657,95.3166 302.1357,95.3266 302.1157,95.3466 C302.0157,95.4266 301.9157,95.4966 301.8157,95.5566 L301.8057,95.5666 C301.6757,95.6566 301.5457,95.7366 301.4157,95.8066 C301.2857,95.8866 301.1457,95.9566 301.0157,96.0266 C300.8757,96.0966 300.7257,96.1666 300.5857,96.2266 C300.4357,96.2966 300.2957,96.3466 300.1457,96.4066 C299.8457,96.5166 299.5357,96.6066 299.2157,96.6966 C299.0657,96.7366 298.9057,96.7666 298.7357,96.8066 C298.5757,96.8366 298.4157,96.8666 298.2457,96.8966 C298.0857,96.9266 297.9157,96.9566 297.7457,96.9766 C296.9057,97.0866 296.0357,97.1366 295.1457,97.1366 C294.7957,97.1366 294.4457,97.1276 294.1057,97.1166 L294.0957,97.1166 C293.4057,97.0866 292.7257,97.0466 292.0457,96.9866 C291.2457,96.9166 290.4557,96.8266 289.7057,96.7466 C289.4457,96.7166 289.1957,96.6866 288.9557,96.6566 L288.9357,96.6566 C288.3057,96.5866 287.7057,96.5266 287.1557,96.4766 C286.0457,96.3776 284.9457,96.2866 283.8457,96.1766 C283.0257,96.1066 282.2057,96.0166 281.3957,95.9366 C280.7957,95.8666 280.1957,95.7966 279.5957,95.7266 C277.0857,95.4266 274.5957,95.0266 272.1257,94.4566 C271.6257,94.3466 271.1257,94.2266 270.6257,94.0966 C267.9157,93.3866 265.0157,92.6466 262.1157,91.7466 C262.0357,91.7266 261.9457,91.6966 261.8657,91.6666 C261.5557,91.5766 261.2357,91.4766 260.9257,91.3666 C260.7457,91.3166 260.5557,91.2566 260.3757,91.1966 C260.3657,91.1866 260.3457,91.1866 260.3357,91.1766 C260.1557,91.1276 259.9857,91.0666 259.8057,91.0066 C259.7057,90.9766 259.5957,90.9366 259.4957,90.8966 C259.3557,90.8566 259.2257,90.8066 259.0957,90.7566 C258.9257,90.7066 258.7457,90.6466 258.5657,90.5766 C258.4757,90.5466 258.3857,90.5166 258.2957,90.4766 C258.2757,90.4766 258.2457,90.4666 258.2257,90.4566 C257.9357,90.3566 257.6457,90.2466 257.3657,90.1366 C257.2157,90.0766 257.0657,90.0266 256.9057,89.9566 C256.8357,89.9266 256.7657,89.8966 256.6957,89.8776 C256.6357,89.8566 256.5757,89.8366 256.5157,89.8066 C256.3657,89.7466 256.2157,89.6866 256.0657,89.6276 C256.0357,89.6166 256.0057,89.6066 255.9757,89.5966 C255.7457,89.5066 255.5157,89.4066 255.2757,89.3066 C255.2557,89.2966 255.2357,89.2866 255.2157,89.2766 C255.1857,89.2666 255.1557,89.2566 255.1257,89.2466 C255.0257,89.1966 254.9257,89.1566 254.8257,89.1166 C254.8157,89.1166 254.8157,89.1066 254.8057,89.1066 C254.7557,89.0866 254.6957,89.0666 254.6457,89.0366 C254.6257,89.0266 254.6157,89.0266 254.5957,89.0166 C254.5357,88.9866 254.4657,88.9566 254.4057,88.9266 L254.3857,88.9266 C254.3557,88.9066 254.3257,88.8966 254.2857,88.8776 C254.0257,88.7666 253.7657,88.6466 253.5057,88.5266 C253.4857,88.5166 253.4757,88.5066 253.4557,88.4966 C253.3257,88.4366 253.1957,88.3776 253.0757,88.3166 C253.0657,88.3066 253.0557,88.3066 253.0457,88.3066 C253.0057,88.2866 252.9657,88.2666 252.9357,88.2466 C252.8657,88.2166 252.7957,88.1766 252.7257,88.1466 C252.7057,88.1366 252.6857,88.1276 252.6757,88.1276 C252.6657,88.1166 252.6557,88.1166 252.6457,88.1166 L252.6357,88.1066 C252.5557,88.0666 252.4757,88.0266 252.3957,87.9866 C252.2357,87.9066 252.0757,87.8266 251.9157,87.7466 C251.8857,87.7266 251.8457,87.7066 251.8157,87.6866 C251.5857,87.5666 251.3457,87.4466 251.1157,87.3166 C251.0857,87.2966 251.0557,87.2866 251.0157,87.2666 C250.8757,87.1866 250.7457,87.1166 250.6057,87.0266 C250.5157,86.9866 250.4257,86.9366 250.3357,86.8776 C250.3057,86.8666 250.2657,86.8466 250.2257,86.8166 C250.1757,86.7866 250.1157,86.7566 250.0557,86.7166 C249.9457,86.6566 249.8257,86.5866 249.7157,86.5166 C249.6257,86.4666 249.5457,86.4166 249.4557,86.3566 C249.3657,86.3066 249.2757,86.2466 249.1857,86.1966 C249.1257,86.1566 249.0657,86.1166 249.0157,86.0866 C248.9457,86.0366 248.8757,85.9966 248.8057,85.9466 C248.7057,85.8866 248.6157,85.8266 248.5257,85.7766 C248.5157,85.7566 248.4957,85.7566 248.4857,85.7466 C248.3757,85.6666 248.2857,85.5966 248.1757,85.5266 L248.1657,85.5266 C248.1257,85.5066 248.0857,85.4766 248.0557,85.4566 C247.8857,85.3366 247.7157,85.2066 247.5557,85.0966 C247.5457,85.0866 247.5257,85.0766 247.5157,85.0666 C247.4357,85.0066 247.3457,84.9466 247.2657,84.8776 C247.2057,84.8366 247.1557,84.7966 247.0957,84.7566 C246.8957,84.6166 246.7057,84.4766 246.5157,84.3366 C246.3657,84.2066 246.2057,84.0866 246.0557,83.9566 C246.0357,83.9466 246.0157,83.9266 245.9857,83.9066 C245.9757,83.8966 245.9557,83.8776 245.9357,83.8666 C245.9057,83.8366 245.8657,83.8066 245.8257,83.7766 C245.7157,83.6766 245.6057,83.5866 245.4957,83.4866 C245.4157,83.4266 245.3457,83.3566 245.2757,83.2966 C245.2357,83.2566 245.1957,83.2266 245.1657,83.1966 C245.1457,83.1766 245.1157,83.1566 245.0957,83.1276 C244.9557,83.0166 244.8357,82.8966 244.7057,82.7666 C244.6857,82.7566 244.6557,82.7366 244.6457,82.7166 L244.6357,82.6966 C244.6657,82.5966 244.7057,82.4966 244.7857,82.3966 C244.7157,82.4466 244.6457,82.4866 244.5757,82.5366 C244.5557,82.5566 244.5457,82.5666 244.5257,82.5866 L244.5157,82.5966 C244.1757,82.2866 243.8457,81.9666 243.5357,81.6276 C243.0457,81.1066 242.4357,80.9066 241.8357,80.9266 L241.9657,80.8066 L239.4157,78.1466 C233.9057,72.3776 232.2057,69.7266 231.4957,65.7266 C230.2757,58.8566 234.5257,40.2466 237.9357,37.4866 C238.6657,36.8966 240.1357,34.1966 241.1957,31.4866 C242.5257,28.0766 243.7657,26.4566 245.1957,26.2466 C246.6357,26.0266 247.0757,25.4366 246.6457,24.3166 C246.1757,23.1066 246.4457,22.8666 247.7357,23.3666 C248.8157,23.7766 249.6657,23.4566 250.0357,22.4866 C250.3657,21.6366 251.1857,21.1566 251.8557,21.4166 C252.5357,21.6666 255.0357,19.6366 257.4257,16.8866 C258.1857,16.0166 259.0057,15.1366 259.8657,14.2966 C259.8957,14.1566 259.9857,14.0766 260.1157,14.0466 C264.5257,9.7166 269.7357,6.0566 271.8057,6.0566 C272.6657,6.0566 273.3757,5.6066 273.3757,5.0566 C273.3757,4.5066 274.2257,4.0566 275.2657,4.0566 C276.3057,4.0566 277.4357,3.3166 277.7857,2.4166 C278.3657,0.9166 278.5657,0.9266 280.3057,2.4966 C282.0857,4.1066 282.2457,4.1066 283.2057,2.3866 C284.8957,-0.6224 285.5857,1.5966 284.3057,5.8776 C284.1157,6.5266 283.7457,7.3366 283.2657,8.2266 L283.2657,8.2366 C283.2657,8.6466 282.5257,9.7966 281.3757,11.2566 C280.4857,12.5466 279.4757,13.8166 278.4857,14.8966 C275.9457,17.6366 273.0057,21.1366 271.9357,22.6566 C271.1257,23.8166 270.0357,25.6766 268.8257,27.9166 C268.8257,27.9266 268.8157,27.9266 268.8157,27.9366 C268.0857,29.6966 266.5257,32.9566 264.7257,36.4466 C262.2357,41.2966 259.5157,47.5666 258.6957,50.3966 C257.8757,53.2166 255.6457,57.3566 253.7357,59.5866 L253.1857,60.2266 C252.1357,62.1866 253.1257,62.6366 255.6257,60.3466 C256.8557,59.2266 259.6757,58.0066 261.8757,57.6466 C264.9357,57.1366 265.5157,57.2466 264.3757,58.0966 C262.2557,59.6666 265.8457,58.8866 275.8757,55.5966 C291.8557,50.3466 293.2757,49.8966 294.5657,49.6766 C295.2857,49.5566 296.8457,48.9266 298.0357,48.2666 C300.3357,46.9966 311.3657,47.0366 311.3757,48.3066 C311.3757,48.7166 310.9257,49.0566 310.3757,49.0566 C309.8257,49.0566 309.3757,50.2266 309.3757,51.6666 C309.3757,53.9766 309.6657,54.1966 311.9857,53.6166 L314.5957,52.9666 L312.3957,56.5066 C311.1957,58.4566 310.5257,60.0566 310.9157,60.0566 C311.2957,60.0566 311.1057,60.6666 310.4857,61.4266 C309.6157,62.4666 309.7157,63.0966 310.9057,64.0866 C311.7657,64.7966 312.2157,66.0266 311.9057,66.8266 C311.4957,67.8966 311.8057,68.0866 313.1057,67.5266 C315.7857,66.3776 320.3757,65.7366 320.3757,66.5166 C320.3757,68.1276 317.1257,70.2266 313.7757,70.7666 C310.9657,71.2166 310.5157,71.5566 311.7457,72.2466 C313.3657,73.1466 320.0457,71.8366 323.7157,69.8966 C324.7357,69.3566 325.7857,69.1366 326.0657,69.4166 C326.5657,69.9166 320.6457,73.8966 318.2157,74.8566" id="Fill-11" fill="#FFFFFF"></path>
            <path d="M249.456,86.3566 C249.496,86.3866 249.526,86.4066 249.556,86.4266 C249.616,86.4566 249.666,86.4866 249.716,86.5166 C249.626,86.4666 249.546,86.4166 249.456,86.3566 L249.456,86.3566 Z M244.636,82.6966 L244.626,82.6966 L244.626,82.7066 C244.636,82.7166 244.636,82.7166 244.646,82.7166 L244.636,82.6966 Z M243.496,79.9266 C243.466,79.9266 243.436,79.9166 243.396,79.9066 C243.436,79.9266 243.476,79.9366 243.506,79.9366 C243.496,79.9366 243.496,79.9266 243.496,79.9266 L243.496,79.9266 Z M279.096,67.2966 C279.086,67.2966 279.076,67.2866 279.056,67.2866 C279.076,67.2966 279.106,67.3166 279.136,67.3266 C279.126,67.3166 279.106,67.3066 279.096,67.2966 L279.096,67.2966 Z M269.096,11.5066 L269.096,11.5366 C269.096,11.5166 269.106,11.4966 269.106,11.4866 C269.106,11.4966 269.106,11.4966 269.096,11.5066 L269.096,11.5066 Z M269.166,10.1066 C269.156,10.1276 269.136,10.1466 269.116,10.1666 C269.136,10.1466 269.156,10.1366 269.176,10.1166 C269.176,10.1066 269.166,10.1066 269.166,10.1066 L269.166,10.1066 Z M269.096,10.1866 C269.066,10.2266 269.036,10.2566 268.996,10.3066 C269.046,10.2566 269.076,10.2266 269.106,10.1866 L269.096,10.1866 Z M263.056,15.1366 C262.966,15.2166 262.876,15.2866 262.786,15.3566 C262.886,15.2866 262.976,15.2166 263.076,15.1466 C263.076,15.1466 263.066,15.1366 263.056,15.1366 L263.056,15.1366 Z M250.116,35.5366 C250.106,35.5566 250.096,35.5766 250.086,35.5866 C250.096,35.5666 250.116,35.5566 250.126,35.5366 L250.116,35.5366 Z M252.006,33.1466 C251.976,33.1966 251.936,33.2466 251.906,33.2966 C251.966,33.2166 252.026,33.1466 252.076,33.0666 C252.056,33.0966 252.036,33.1166 252.006,33.1466 L252.006,33.1466 Z M252.246,32.8266 C252.226,32.8566 252.196,32.8966 252.176,32.9366 C252.216,32.8966 252.236,32.8566 252.266,32.8166 C252.256,32.8266 252.256,32.8266 252.246,32.8266 L252.246,32.8266 Z" id="Fill-13" fill="#948876"></path>
            <path d="M256.0658,89.6271 C256.1058,89.6471 256.1358,89.6571 256.1658,89.6771 C256.2858,89.7171 256.3958,89.7671 256.5158,89.8071 C256.3658,89.7471 256.2158,89.6871 256.0658,89.6271 L256.0658,89.6271 Z M248.5258,85.7771 C248.5858,85.8071 248.6458,85.8471 248.7058,85.8971 C248.7358,85.9071 248.7758,85.9271 248.8058,85.9471 C248.7058,85.8871 248.6158,85.8271 248.5258,85.7771 L248.5258,85.7771 Z M244.7858,82.3971 C244.7158,82.4471 244.6458,82.4871 244.5758,82.5371 C244.5558,82.5571 244.5458,82.5661 244.5258,82.5871 L244.5158,82.5971 C244.5558,82.6271 244.5858,82.6671 244.6258,82.6971 L244.6258,82.7071 C244.6358,82.7171 244.6358,82.7171 244.6458,82.7171 L244.6358,82.6971 C244.6658,82.5971 244.7058,82.4971 244.7858,82.3971 L244.7858,82.3971 Z M269.1658,10.1071 C269.1558,10.1271 269.1358,10.1471 269.1158,10.1671 C269.1358,10.1471 269.1558,10.1371 269.1758,10.1171 C269.1858,10.0971 269.1958,10.0871 269.2158,10.0661 C269.1958,10.0771 269.1858,10.0971 269.1658,10.1071 L269.1658,10.1071 Z M269.0958,10.1871 C269.0658,10.2271 269.0358,10.2571 268.9958,10.3071 C269.0458,10.2571 269.0758,10.2271 269.1058,10.1871 L269.0958,10.1871 Z M263.0558,15.1371 C262.9658,15.2171 262.8758,15.2871 262.7858,15.3571 C262.8858,15.2871 262.9758,15.2171 263.0758,15.1471 C263.0758,15.1471 263.0658,15.1371 263.0558,15.1371 L263.0558,15.1371 Z M261.7258,65.7471 C261.7158,65.7671 261.7158,65.7971 261.7158,65.8161 L261.7158,65.8371 L261.7158,65.8771 C261.7158,65.8561 261.7158,65.8371 261.7358,65.8071 C261.7358,65.7771 261.7458,65.7371 261.7758,65.6971 C261.7558,65.6971 261.7458,65.7171 261.7258,65.7471 L261.7258,65.7471 Z M260.6958,67.1061 C260.6458,67.1371 260.5958,67.1571 260.5458,67.1771 C260.6158,67.1571 260.6858,67.1371 260.7458,67.0971 C260.7358,67.0971 260.7158,67.0971 260.6958,67.1061 L260.6958,67.1061 Z M250.1158,35.5371 C250.1058,35.5571 250.0958,35.5771 250.0858,35.5871 C250.0958,35.5661 250.1158,35.5571 250.1258,35.5371 L250.1158,35.5371 Z M243.4958,79.9271 C243.4658,79.9271 243.4358,79.9171 243.3958,79.9071 C243.4358,79.9271 243.4758,79.9371 243.5058,79.9371 C243.4958,79.9371 243.4958,79.9271 243.4958,79.9271 L243.4958,79.9271 Z" id="Fill-15" fill="#7B838A"></path>
            <path d="M269.1659,10.1067 C269.1559,10.1277 269.1359,10.1467 269.1159,10.1667 C269.1359,10.1467 269.1559,10.1367 269.1759,10.1167 C269.1859,10.0967 269.1959,10.0867 269.2159,10.0667 C269.1959,10.0767 269.1859,10.0967 269.1659,10.1067 L269.1659,10.1067 Z M269.0959,10.1867 C269.0659,10.2267 269.0359,10.2567 268.9959,10.3067 C269.0459,10.2567 269.0759,10.2267 269.1059,10.1867 L269.0959,10.1867 Z" id="Fill-17" fill="#757C83"></path>
            <path d="M268.4057,24.7668 C268.5157,24.7568 268.5757,24.5768 268.6057,24.1968 C268.5357,24.3868 268.4757,24.5668 268.4057,24.7668 M261.7257,65.7468 C261.7157,65.7668 261.7157,65.7968 261.7157,65.8168 L261.7157,65.8368 L261.7157,65.8768 C261.7157,65.8568 261.7157,65.8368 261.7357,65.8068 C261.7357,65.7768 261.7457,65.7368 261.7757,65.6968 C261.7557,65.6968 261.7457,65.7168 261.7257,65.7468 M252.2457,32.8268 C252.2257,32.8568 252.1957,32.8968 252.1757,32.9368 C252.2157,32.8968 252.2357,32.8568 252.2657,32.8168 C252.2557,32.8268 252.2557,32.8268 252.2457,32.8268 M252.0057,33.1468 C251.9757,33.1968 251.9357,33.2468 251.9057,33.2968 C251.9657,33.2168 252.0257,33.1468 252.0757,33.0668 C252.0557,33.0968 252.0357,33.1168 252.0057,33.1468" id="Fill-19" fill="#757C83"></path>
            <path d="M269.0956,11.507 L269.0956,11.537 C269.0956,11.517 269.1056,11.497 269.1056,11.487 C269.1056,11.497 269.1056,11.497 269.0956,11.507" id="Fill-21" fill="#867967"></path>
            <path d="M288.956,96.6569 C288.966,96.6669 288.976,96.6669 288.986,96.6669 C289.226,96.6969 289.466,96.7169 289.706,96.7469 C289.446,96.7169 289.196,96.6869 288.956,96.6569 L288.956,96.6569 Z M261.726,65.7469 C261.716,65.7669 261.716,65.7969 261.716,65.8169 L261.716,65.8369 L261.716,65.8769 C261.716,65.8569 261.716,65.8369 261.736,65.8069 C261.736,65.7769 261.746,65.7369 261.776,65.6969 C261.756,65.6969 261.746,65.7169 261.726,65.7469 L261.726,65.7469 Z M252.006,33.1469 C251.976,33.1969 251.936,33.2469 251.906,33.2969 C251.966,33.2169 252.026,33.1469 252.076,33.0669 C252.056,33.0969 252.036,33.1169 252.006,33.1469 L252.006,33.1469 Z M252.246,32.8269 C252.226,32.8569 252.196,32.8969 252.176,32.9369 C252.216,32.8969 252.236,32.8569 252.266,32.8169 C252.256,32.8269 252.256,32.8269 252.246,32.8269 L252.246,32.8269 Z M250.116,35.5369 C250.106,35.5569 250.096,35.5769 250.086,35.5869 C250.096,35.5669 250.116,35.5569 250.126,35.5369 L250.116,35.5369 Z M243.496,79.9269 C243.466,79.9269 243.436,79.9169 243.396,79.9069 C243.436,79.9269 243.476,79.9369 243.506,79.9369 C243.496,79.9369 243.496,79.9269 243.496,79.9269 L243.496,79.9269 Z" id="Fill-23" fill="#867967"></path>
            <path d="M257.9477,20.884 C257.9477,20.045 258.8477,18.797 259.9477,18.11 C262.2477,16.673 262.6607,14.854 260.4987,15.684 C259.5307,16.056 259.2337,15.759 259.6057,14.791 C260.2877,13.015 261.9357,12.876 261.9807,14.592 C261.9997,15.28 262.9107,14.766 264.0057,13.45 C265.1017,12.135 266.2397,11.301 266.5357,11.596 C266.8307,11.892 265.0197,14.446 262.5097,17.272 C260.0007,20.097 257.9477,21.723 257.9477,20.884 M258.9477,24.842 C259.6327,24.017 260.4177,23.342 260.6927,23.342 C260.9677,23.342 260.6327,24.017 259.9477,24.842 C259.2627,25.667 258.4777,26.342 258.2027,26.342 C257.9277,26.342 258.2627,25.667 258.9477,24.842 M243.9477,27.901 C243.9477,27.109 244.3977,26.182 244.9477,25.842 C245.4977,25.502 245.9477,26.151 245.9477,27.282 C245.9477,28.415 245.4977,29.342 244.9477,29.342 C244.3977,29.342 243.9477,28.694 243.9477,27.901 M244.0267,35.626 C243.8947,33.588 247.2127,27.005 249.8407,24.092 C252.4107,21.243 254.3847,20.622 255.4407,22.33 C255.7767,22.874 255.4467,23.087 254.7077,22.803 C253.4747,22.33 249.1327,26.959 249.3527,28.511 C249.4047,28.879 248.4927,30.23 247.3247,31.511 C246.1577,32.793 244.9557,34.517 244.6537,35.342 C244.3467,36.182 244.0707,36.307 244.0267,35.626 M300.9477,50.46 C300.9477,49.91 301.3977,49.182 301.9477,48.842 C302.4977,48.502 302.9477,48.674 302.9477,49.224 C302.9477,49.774 302.4977,50.502 301.9477,50.842 C301.3977,51.182 300.9477,51.01 300.9477,50.46 M238.6037,58.072 C238.3297,57.396 238.1227,58.192 238.1427,59.842 C238.1627,61.491 238.3867,62.046 238.6407,61.072 C238.8937,60.1 238.8777,58.75 238.6037,58.072 M264.1347,65.658 C263.4137,65.37 262.5507,65.405 262.2187,65.738 C261.8857,66.07 262.4767,66.307 263.5307,66.263 C264.6957,66.215 264.9327,65.978 264.1347,65.658 M286.4477,69.342 C286.1077,68.792 284.8437,68.335 283.6387,68.326 C280.7777,68.307 277.9337,66.399 279.6977,65.683 C280.3847,65.404 280.9477,64.537 280.9477,63.759 C280.9477,62.776 279.7397,62.342 277.0067,62.342 C271.9617,62.342 270.9057,63.987 275.1617,65.214 L278.4477,66.161 L274.4477,66.315 C270.7157,66.458 270.6147,66.536 272.9477,67.484 C278.3577,69.68 287.4277,70.929 286.4477,69.342 M295.1357,79.658 C294.4137,79.37 293.5507,79.405 293.2187,79.738 C292.8857,80.07 293.4767,80.307 294.5307,80.263 C295.6957,80.215 295.9327,79.978 295.1357,79.658 M278.4477,89.331 C260.8907,85.566 248.7367,81.323 247.4607,78.515 C246.9177,77.32 245.8387,76.342 245.0617,76.342 C243.2337,76.342 236.9477,69.878 236.9477,67.998 C236.9477,67.205 236.3117,66.312 235.5337,66.014 C233.7827,65.341 234.5317,57.96 236.6887,54.636 C237.4757,53.422 237.8297,51.96 237.4747,51.386 C237.1197,50.812 237.5047,50.342 238.3297,50.342 C240.4217,50.342 241.4767,48.287 239.8897,47.306 C238.8287,46.651 238.9277,45.712 240.4017,42.446 C242.7217,37.298 244.3777,38.188 243.5617,44.144 L242.9397,48.683 L247.4227,41.762 C252.3447,34.163 253.0937,32.014 249.8017,34.937 L247.6567,36.842 L248.9667,34.351 C250.5027,31.428 255.9477,25.772 255.9477,27.098 C255.9477,28.991 258.5417,27.88 260.9477,24.956 C262.3227,23.284 262.8847,22.265 262.1977,22.689 C261.5107,23.113 260.9477,23.165 260.9477,22.805 C260.9477,22.049 264.8047,16.437 266.5937,14.592 C269.6977,11.389 269.8047,14.983 266.7217,18.902 C265.4987,20.457 264.3487,22.833 264.1687,24.181 C263.9887,25.529 262.9767,28.324 261.9217,30.394 C260.0787,34.005 257.7947,39.823 255.9767,45.537 C255.4217,47.28 255.4927,48.357 256.1767,48.585 C257.6137,49.064 255.5557,52.927 251.5777,57.22 L248.4477,60.598 L251.2067,60.107 C253.4067,59.715 253.7437,59.883 252.8707,60.935 C251.6867,62.361 252.5427,64.71 253.9327,63.851 C254.3987,63.563 255.9737,63.781 257.4337,64.336 C259.4637,65.109 260.4317,65.001 261.5527,63.879 C262.3597,63.073 262.9417,62.06 262.8477,61.627 C262.6327,60.644 269.5067,58.522 273.2377,58.419 C274.7717,58.376 277.7917,59.241 279.9477,60.342 C282.1037,61.442 284.5187,62.342 285.3147,62.342 C286.2677,62.342 286.5827,61.661 286.2377,60.342 C285.7937,58.647 286.2067,58.342 288.9477,58.342 C291.6577,58.342 292.0987,58.656 291.6727,60.286 C291.2997,61.714 291.7337,62.313 293.3057,62.537 C294.6327,62.727 295.3947,63.509 295.3087,64.592 C295.1967,66.007 295.9877,66.342 299.4367,66.342 C302.0087,66.342 304.1977,65.746 304.9477,64.842 C306.7087,62.721 310.1837,62.879 309.7627,65.062 C309.3157,67.387 303.0457,69.148 294.4477,69.363 L287.4477,69.539 L291.9477,70.959 C298.4607,73.015 309.8067,73.359 313.3087,71.607 C315.4807,70.521 316.0677,70.481 315.7477,71.443 C315.5147,72.14 313.2467,73.415 310.7067,74.277 C308.1677,75.137 305.7577,76.179 305.3517,76.592 C304.9467,77.004 303.6397,77.342 302.4477,77.342 C299.2647,77.342 298.8507,78.253 300.5447,81.529 C301.3787,83.142 301.9237,86.122 301.7547,88.152 L301.4477,91.842 L296.4477,91.981 C293.6977,92.057 285.5977,90.864 278.4477,89.331" id="Fill-25" fill="#A3A3A3"></path>
            <path d="M16.2724,93.8337 L16.2724,94.2047 C16.2724,94.7747 15.9504,95.0987 15.3794,95.0987 L10.5444,95.0987 L10.5444,109.4047 C10.5444,109.9757 10.2224,110.2977 9.6514,110.2977 L8.8344,110.2977 C8.2634,110.2977 7.9414,109.9757 7.9414,109.4047 L7.9414,95.0987 L3.1054,95.0987 C2.5604,95.0987 2.2134,94.7747 2.2134,94.2047 L2.2134,93.8337 C2.2134,93.2637 2.5604,92.9407 3.1054,92.9407 L15.3794,92.9407 C15.9504,92.9407 16.2724,93.2637 16.2724,93.8337" id="Fill-27" fill="#A3A3A3"></path>
            <path d="M19.101,109.405 L19.101,93.834 C19.101,93.263 19.423,92.941 19.994,92.941 L20.837,92.941 C21.407,92.941 21.729,93.263 21.729,93.834 L21.729,100.95 L29.664,100.95 L29.664,93.834 C29.664,93.263 30.011,92.941 30.581,92.941 L31.4,92.941 C31.97,92.941 32.292,93.263 32.292,93.834 L32.292,109.405 C32.292,109.975 31.97,110.298 31.4,110.298 L30.581,110.298 C30.011,110.298 29.664,109.975 29.664,109.405 L29.664,103.082 L21.729,103.082 L21.729,109.405 C21.729,109.975 21.407,110.298 20.837,110.298 L19.994,110.298 C19.423,110.298 19.101,109.975 19.101,109.405" id="Fill-29" fill="#A3A3A3"></path>
            <path d="M39.683,95.0983 L39.683,100.7263 L46.18,100.7263 C46.749,100.7263 47.072,101.0483 47.072,101.6193 L47.072,101.9413 C47.072,102.5113 46.749,102.8593 46.18,102.8593 L39.683,102.8593 L39.683,108.1403 L47.27,108.1403 C47.816,108.1403 48.163,108.4623 48.163,109.0333 L48.163,109.4053 C48.163,109.9753 47.816,110.2973 47.27,110.2973 L37.947,110.2973 C37.377,110.2973 37.055,109.9753 37.055,109.4053 L37.055,93.8333 C37.055,93.2633 37.377,92.9413 37.947,92.9413 L47.27,92.9413 C47.816,92.9413 48.163,93.2633 48.163,93.8333 L48.163,94.2043 C48.163,94.7753 47.816,95.0983 47.27,95.0983 L39.683,95.0983 Z" id="Fill-31" fill="#A3A3A3"></path>
            <path d="M186.2812,165.7278 C186.1112,165.3538 186.3152,165.0648 186.6892,164.9618 L187.1822,164.8438 C187.5562,164.7588 187.7602,164.8948 187.9472,165.2508 C188.3722,165.9828 189.2732,166.5608 190.4632,166.5608 C191.9922,166.5608 192.9272,165.8128 192.9272,164.7918 C192.9272,163.8918 192.1792,163.3318 191.2102,162.9738 L189.4432,162.3788 C187.1992,161.6308 186.6552,160.2898 186.6552,159.1828 C186.6552,157.1258 188.4572,155.8698 190.5132,155.8698 C192.3832,155.8698 193.7092,156.7698 194.2532,158.1128 C194.4062,158.4868 194.2192,158.7758 193.8452,158.8768 L193.4202,159.0128 C193.0462,159.1168 192.8082,158.9798 192.6382,158.6238 C192.2472,157.8398 191.5162,157.4658 190.5312,157.4658 C189.4082,157.4658 188.4742,158.0798 188.4742,159.1318 C188.4742,159.6248 188.6272,160.2708 189.9872,160.7828 L191.7542,161.4438 C193.7602,162.0738 194.6782,163.3988 194.6782,164.6738 C194.6782,166.8158 192.9782,168.1408 190.4962,168.1408 C188.3882,168.1408 186.8932,167.1228 186.2812,165.7278" id="Fill-33" fill="#A3A3A3"></path>
            <path d="M196.2597,163.5344 L196.2597,156.6674 C196.2597,156.2764 196.4977,156.0554 196.8717,156.0554 L197.4497,156.0554 C197.8407,156.0554 198.0617,156.2764 198.0617,156.6674 L198.0617,163.5344 C198.0617,165.5404 199.4217,166.5264 200.9857,166.5264 C202.5657,166.5264 203.9257,165.5404 203.9257,163.5344 L203.9257,156.6674 C203.9257,156.2764 204.1467,156.0554 204.5377,156.0554 L205.0987,156.0554 C205.4897,156.0554 205.7277,156.2764 205.7277,156.6674 L205.7277,163.5344 C205.7277,166.5604 203.5517,168.1404 200.9857,168.1404 C198.4357,168.1404 196.2597,166.5604 196.2597,163.5344" id="Fill-35" fill="#A3A3A3"></path>
            <path d="M212.8334,162.0559 C214.1424,162.0559 214.9414,161.1209 214.9414,159.8119 C214.9414,158.4689 214.1254,157.5349 212.8334,157.5349 L209.9774,157.5349 L209.9774,162.0559 L212.8334,162.0559 Z M212.3234,163.4839 L209.9774,163.4839 L209.9774,167.3419 C209.9774,167.7339 209.7564,167.9539 209.3654,167.9539 L208.7874,167.9539 C208.3964,167.9539 208.1754,167.7339 208.1754,167.3419 L208.1754,156.6669 C208.1754,156.2769 208.3964,156.0559 208.7874,156.0559 L213.1904,156.0559 C215.4854,156.0559 216.8114,157.7889 216.8114,159.8119 C216.8114,161.5799 215.7914,163.0589 214.0234,163.3989 C214.1424,164.6909 214.9414,166.6279 216.2324,166.6279 C216.5734,166.6279 216.8614,166.5609 217.1004,166.4239 C217.4744,166.2539 217.7294,166.2879 217.9164,166.6459 L218.0004,166.7979 C218.1534,167.1379 218.1364,167.4449 217.8134,167.6489 C217.3044,167.9889 216.7084,168.1409 216.0974,168.1409 C213.2924,168.1409 212.4424,164.9109 212.3234,163.4839 L212.3234,163.4839 Z" id="Fill-37" fill="#A3A3A3"></path>
            <path d="M218.2572,162.0393 C218.2572,158.6053 221.0102,155.8683 224.4442,155.8683 C225.9062,155.8683 227.1472,156.1423 228.3032,156.8543 C228.6262,157.0593 228.6942,157.3483 228.5072,157.7043 L228.3372,157.9933 C228.1502,158.3673 227.8612,158.4183 227.4872,158.2153 C226.1612,157.5003 225.3452,157.4833 224.4442,157.4833 C222.0302,157.4833 220.0922,159.4893 220.0922,162.0213 C220.0922,164.3013 221.6222,166.5263 224.6822,166.5263 C225.7192,166.5263 226.6032,166.2713 227.4022,165.7633 L227.4022,163.3983 L224.7162,163.3983 C224.3252,163.3983 224.1042,163.1603 224.1042,162.7693 L224.1042,162.5653 C224.1042,162.1763 224.3252,161.9543 224.7162,161.9543 L228.4392,161.9543 C228.8302,161.9543 229.0512,162.1763 229.0512,162.5653 L229.0512,165.9993 C229.0512,166.3223 228.9152,166.5963 228.5242,166.9003 C227.1642,167.9033 225.6852,168.1423 224.5972,168.1423 C220.9082,168.1423 218.2572,165.3893 218.2572,162.0393" id="Fill-39" fill="#A3A3A3"></path>
            <path d="M230.9901,167.342 L230.9901,156.667 C230.9901,156.278 231.2111,156.056 231.6021,156.056 L232.1801,156.056 C232.5711,156.056 232.7921,156.278 232.7921,156.667 L232.7921,167.342 C232.7921,167.735 232.5711,167.954 232.1801,167.954 L231.6021,167.954 C231.2111,167.954 230.9901,167.735 230.9901,167.342" id="Fill-41" fill="#A3A3A3"></path>
            <path d="M234.5605,162.0051 C234.5605,158.6921 236.9565,155.8681 241.0025,155.8681 C242.4815,155.8681 243.5525,156.2421 244.4705,156.8371 C244.7935,157.0601 244.8615,157.3301 244.6745,157.6891 L244.5215,157.9591 C244.3345,158.2991 244.0455,158.3671 243.6715,158.1631 C242.9235,157.7551 241.9375,157.4841 241.0025,157.4841 C238.0795,157.4841 236.3955,159.5581 236.3955,162.0051 C236.3955,164.4521 238.0795,166.5261 241.0025,166.5261 C241.9375,166.5261 242.9235,166.2541 243.6715,165.8481 C244.0455,165.6441 244.3345,165.7101 244.5215,166.0501 L244.6745,166.3221 C244.8615,166.6811 244.8275,166.9171 244.5725,167.1061 C243.6375,167.7341 242.5495,168.1421 241.0025,168.1421 C236.9565,168.1421 234.5605,165.3191 234.5605,162.0051" id="Fill-43" fill="#A3A3A3"></path>
            <path d="M252.9189,164.0617 L250.5729,157.8057 L248.2619,164.0617 L252.9189,164.0617 Z M245.2699,167.2417 L249.3659,156.5477 C249.4849,156.2257 249.7399,156.0557 250.0809,156.0557 L251.0659,156.0557 C251.4229,156.0557 251.6609,156.2257 251.7799,156.5477 L255.9109,167.2417 C256.0639,167.6657 255.8939,167.9557 255.4349,167.9557 L254.8909,167.9557 C254.5339,167.9557 254.2959,167.8007 254.1599,167.4607 L253.4289,165.5247 L247.7519,165.5247 L247.0209,167.4607 C246.8849,167.8007 246.6639,167.9557 246.3069,167.9557 L245.7459,167.9557 C245.2869,167.9557 245.0999,167.6657 245.2699,167.2417 L245.2699,167.2417 Z" id="Fill-45" fill="#A3A3A3"></path>
            <path d="M257.3905,167.342 L257.3905,156.667 C257.3905,156.278 257.6115,156.056 258.0025,156.056 L258.5805,156.056 C258.9715,156.056 259.1925,156.278 259.1925,156.667 L259.1925,166.476 L264.0025,166.476 C264.3935,166.476 264.6315,166.696 264.6315,167.087 L264.6315,167.342 C264.6315,167.735 264.3935,167.954 264.0025,167.954 L258.0025,167.954 C257.6115,167.954 257.3905,167.735 257.3905,167.342" id="Fill-47" fill="#A3A3A3"></path>
            <path d="M268.39,162.0051 C268.39,158.6921 270.786,155.8681 274.832,155.8681 C276.311,155.8681 277.382,156.2421 278.3,156.8371 C278.623,157.0601 278.691,157.3301 278.504,157.6891 L278.351,157.9591 C278.164,158.2991 277.875,158.3671 277.501,158.1631 C276.753,157.7551 275.767,157.4841 274.832,157.4841 C271.909,157.4841 270.225,159.5581 270.225,162.0051 C270.225,164.4521 271.909,166.5261 274.832,166.5261 C275.767,166.5261 276.753,166.2541 277.501,165.8481 C277.875,165.6441 278.164,165.7101 278.351,166.0501 L278.504,166.3221 C278.691,166.6811 278.657,166.9171 278.402,167.1061 C277.467,167.7341 276.379,168.1421 274.832,168.1421 C270.786,168.1421 268.39,165.3191 268.39,162.0051" id="Fill-49" fill="#A3A3A3"></path>
            <path d="M282.057,157.5344 L282.057,161.3924 L286.511,161.3924 C286.902,161.3924 287.122,161.6134 287.122,162.0064 L287.122,162.2254 C287.122,162.6164 286.902,162.8544 286.511,162.8544 L282.057,162.8544 L282.057,166.4754 L287.259,166.4754 C287.633,166.4754 287.87,166.6964 287.87,167.0884 L287.87,167.3434 C287.87,167.7334 287.633,167.9544 287.259,167.9544 L280.867,167.9544 C280.476,167.9544 280.255,167.7334 280.255,167.3434 L280.255,156.6674 C280.255,156.2764 280.476,156.0554 280.867,156.0554 L287.259,156.0554 C287.633,156.0554 287.87,156.2764 287.87,156.6674 L287.87,156.9234 C287.87,157.3134 287.633,157.5344 287.259,157.5344 L282.057,157.5344 Z" id="Fill-51" fill="#A3A3A3"></path>
            <path d="M289.7069,167.342 L289.7069,156.667 C289.7069,156.278 289.9279,156.056 290.3189,156.056 L290.5739,156.056 C290.8969,156.056 291.1349,156.157 291.3389,156.43 L297.4239,164.656 L297.4239,156.667 C297.4239,156.278 297.6449,156.056 298.0359,156.056 L298.6139,156.056 C299.0049,156.056 299.2429,156.278 299.2429,156.667 L299.2429,167.342 C299.2429,167.735 299.0049,167.954 298.6139,167.954 L298.3759,167.954 C298.0529,167.954 297.8149,167.854 297.6109,167.58 L291.5089,159.321 L291.5089,167.342 C291.5089,167.735 291.2879,167.954 290.8969,167.954 L290.3189,167.954 C289.9279,167.954 289.7069,167.735 289.7069,167.342" id="Fill-53" fill="#A3A3A3"></path>
            <path d="M310.1908,156.6672 L310.1908,156.9222 C310.1908,157.3132 309.9698,157.5342 309.5788,157.5342 L306.2648,157.5342 L306.2648,167.3432 C306.2648,167.7332 306.0438,167.9542 305.6518,167.9542 L305.0918,167.9542 C304.7008,167.9542 304.4798,167.7332 304.4798,167.3432 L304.4798,157.5342 L301.1648,157.5342 C300.7908,157.5342 300.5528,157.3132 300.5528,156.9222 L300.5528,156.6672 C300.5528,156.2762 300.7908,156.0572 301.1648,156.0572 L309.5788,156.0572 C309.9698,156.0572 310.1908,156.2762 310.1908,156.6672" id="Fill-55" fill="#A3A3A3"></path>
            <path d="M316.1415,162.0559 C317.4505,162.0559 318.2495,161.1209 318.2495,159.8119 C318.2495,158.4689 317.4335,157.5349 316.1415,157.5349 L313.2855,157.5349 L313.2855,162.0559 L316.1415,162.0559 Z M315.6315,163.4839 L313.2855,163.4839 L313.2855,167.3419 C313.2855,167.7339 313.0645,167.9539 312.6735,167.9539 L312.0955,167.9539 C311.7045,167.9539 311.4835,167.7339 311.4835,167.3419 L311.4835,156.6669 C311.4835,156.2769 311.7045,156.0559 312.0955,156.0559 L316.4985,156.0559 C318.7935,156.0559 320.1195,157.7889 320.1195,159.8119 C320.1195,161.5799 319.0995,163.0589 317.3315,163.3989 C317.4505,164.6909 318.2495,166.6279 319.5405,166.6279 C319.8815,166.6279 320.1695,166.5609 320.4085,166.4239 C320.7825,166.2539 321.0375,166.2879 321.2245,166.6459 L321.3085,166.7979 C321.4615,167.1379 321.4445,167.4449 321.1215,167.6489 C320.6115,167.9889 320.0165,168.1409 319.4055,168.1409 C316.6005,168.1409 315.7505,164.9109 315.6315,163.4839 L315.6315,163.4839 Z" id="Fill-57" fill="#A3A3A3"></path>
            <path d="M324.3524,157.5344 L324.3524,161.3924 L328.8064,161.3924 C329.1974,161.3924 329.4174,161.6134 329.4174,162.0064 L329.4174,162.2254 C329.4174,162.6164 329.1974,162.8544 328.8064,162.8544 L324.3524,162.8544 L324.3524,166.4754 L329.5544,166.4754 C329.9284,166.4754 330.1654,166.6964 330.1654,167.0884 L330.1654,167.3434 C330.1654,167.7334 329.9284,167.9544 329.5544,167.9544 L323.1624,167.9544 C322.7714,167.9544 322.5504,167.7334 322.5504,167.3434 L322.5504,156.6674 C322.5504,156.2764 322.7714,156.0554 323.1624,156.0554 L329.5544,156.0554 C329.9284,156.0554 330.1654,156.2764 330.1654,156.6674 L330.1654,156.9234 C330.1654,157.3134 329.9284,157.5344 329.5544,157.5344 L324.3524,157.5344 Z" id="Fill-59" fill="#A3A3A3"></path>
            <path d="M94.4994,108.6555 L88.1584,124.7715 L100.0364,124.7715 L94.4994,108.6555 Z M95.5444,99.9775 L97.3324,99.9775 L108.0334,130.9255 C108.8204,133.2235 109.6834,135.1035 110.6214,136.5655 C111.5604,138.0275 112.7054,138.7885 114.0574,138.8485 L114.0574,140.3015 L103.1724,140.3015 L103.1724,138.8485 L103.8924,138.8485 C104.2444,138.8485 104.4204,138.5155 104.4204,137.8495 C104.4204,137.6485 104.3804,137.4265 104.2994,137.1835 L100.6814,126.6485 L87.4064,126.6485 C86.0344,130.5645 85.3494,133.4805 85.3494,135.3975 C85.3494,136.4075 85.6774,137.2345 86.3324,137.8805 C86.9884,138.5265 87.8514,138.8485 88.9214,138.8485 L90.5254,138.8485 L90.5254,140.3015 L76.9654,140.3015 L76.9654,138.8485 C79.2254,138.7275 81.2844,136.3165 83.1414,131.6135 L95.5444,99.9775 Z" id="Fill-61" fill="#A3A3A3"></path>
            <path d="M116.578,101.5827 L126.511,101.5827 L148.547,131.1797 L148.547,122.1827 C148.547,116.4057 148.105,111.8207 147.223,108.4287 C146.34,105.0347 144.934,103.2377 143.007,103.0357 L143.007,101.5827 L156.236,101.5827 L156.236,103.0357 C152.543,103.3797 150.696,109.4437 150.696,121.2297 L150.696,141.6947 L149.293,141.6947 L123.147,106.3957 L123.147,117.6577 C123.147,124.7827 123.586,130.0347 124.464,133.4157 C125.342,136.7957 126.77,138.6067 128.748,138.8497 L128.748,140.3027 L115.579,140.3027 L115.579,138.8497 C119.272,138.2847 121.119,131.3317 121.119,117.9907 L121.119,107.5467 C121.119,105.7507 120.771,104.5607 120.075,103.9747 C119.378,103.3897 118.213,103.0767 116.578,103.0357 L116.578,101.5827 Z" id="Fill-63" fill="#A3A3A3"></path>
            <path d="M169.1435,105.2741 L169.1435,135.4911 C172.3725,137.3671 175.5205,138.3041 178.5885,138.3041 C182.9075,138.3041 186.3895,136.6811 189.0335,133.4341 C191.6765,130.1881 192.9985,125.9731 192.9985,120.7911 C192.9985,115.5881 191.8435,111.3141 189.5325,107.9661 C187.2215,104.6191 183.3515,102.9451 177.9225,102.9451 C174.3905,102.9451 171.4645,103.7211 169.1435,105.2741 L169.1435,105.2741 Z M158.9415,101.5831 L182.7365,101.5831 C188.0645,101.5831 192.0555,102.8541 194.7095,105.3971 C197.3635,107.9401 198.6905,111.7651 198.6905,116.8711 C198.6905,123.3701 196.5355,128.9001 192.2265,133.4611 C187.9175,138.0221 182.1105,140.3021 174.8045,140.3021 L158.9415,140.3021 L158.9415,138.8491 C160.7575,138.8301 161.9785,138.4831 162.6045,137.8111 C163.2295,137.1391 163.5425,135.8911 163.5425,134.0661 L163.5425,107.8191 C163.5425,105.8621 163.1995,104.5851 162.5135,103.9901 C161.8275,103.3941 160.6365,103.0771 158.9415,103.0361 L158.9415,101.5831 Z" id="Fill-65" fill="#A3A3A3"></path>
            <path d="M218.3778,103.0358 C216.5618,103.0768 215.3398,103.4248 214.7148,104.0798 C214.0888,104.7358 213.7758,105.9828 213.7758,107.8188 L213.7758,134.0658 C213.7758,137.1578 215.3098,138.7528 218.3778,138.8488 L218.3778,140.3028 L203.5738,140.3028 L203.5738,138.8488 C205.3908,138.8298 206.6108,138.4828 207.2368,137.8108 C207.8628,137.1398 208.1758,135.8908 208.1758,134.0658 L208.1758,107.8188 C208.1758,105.8618 207.8328,104.5848 207.1468,103.9898 C206.4598,103.3938 205.2698,103.0768 203.5738,103.0358 L203.5738,101.5828 L218.3778,101.5828 L218.3778,103.0358 Z" id="Fill-67" fill="#A3A3A3"></path>
            <path d="M222.5356,101.5827 L232.4686,101.5827 L254.5046,131.1797 L254.5046,122.1827 C254.5046,116.4057 254.0626,111.8207 253.1806,108.4287 C252.2976,105.0347 250.8916,103.2377 248.9646,103.0357 L248.9646,101.5827 L262.1936,101.5827 L262.1936,103.0357 C258.5006,103.3797 256.6536,109.4437 256.6536,121.2297 L256.6536,141.6947 L255.2506,141.6947 L229.1046,106.3957 L229.1046,117.6577 C229.1046,124.7827 229.5436,130.0347 230.4216,133.4157 C231.2996,136.7957 232.7276,138.6067 234.7056,138.8497 L234.7056,140.3027 L221.5366,140.3027 L221.5366,138.8497 C225.2296,138.2847 227.0766,131.3317 227.0766,117.9907 L227.0766,107.5467 C227.0766,105.7507 226.7286,104.5607 226.0326,103.9747 C225.3356,103.3897 224.1706,103.0767 222.5356,103.0357 L222.5356,101.5827 Z" id="Fill-69" fill="#A3A3A3"></path>
            <path d="M288.6322,138.8498 C285.9072,140.4038 283.3442,141.1808 280.9432,141.1808 C278.3392,141.1808 275.7662,140.3688 273.2232,138.7448 C270.6802,137.1198 268.7422,134.9548 267.4102,132.2498 C266.0782,129.5458 265.4122,126.4978 265.4122,123.1078 C265.4122,118.8698 266.4212,115.0248 268.4402,111.5738 C270.4582,108.1218 273.1222,105.4488 276.4322,103.5508 C279.7412,101.6548 283.4752,100.7048 287.6332,100.7048 C290.8622,100.7048 294.5252,101.3308 298.6222,102.5818 L298.6222,111.7548 L296.4122,111.7548 C296.0692,108.8598 294.7982,106.6268 292.5982,105.0578 C290.3982,103.4888 287.8042,102.7038 284.8182,102.7038 C280.8612,102.7038 277.4962,104.1258 274.7212,106.9718 C271.9462,109.8178 270.5592,113.7338 270.5592,118.7178 C270.5592,124.0458 271.9712,128.4708 274.7972,131.9928 C277.6222,135.5148 281.0432,137.2758 285.0602,137.2758 C287.7032,137.2758 289.9132,136.5298 291.6902,135.0358 C293.4652,133.5418 294.3542,131.7458 294.3542,129.6468 C294.3542,126.6198 292.4462,125.1058 288.6322,125.1058 L287.5422,125.1058 L287.5422,123.6528 L302.6492,123.6528 L302.6492,125.1058 C301.7002,125.1258 300.9532,125.5368 300.4082,126.3378 C299.8632,127.1388 299.5912,128.1008 299.5912,129.2228 L299.5912,141.6958 L298.0772,141.6958 C297.9762,138.1438 296.6342,136.3678 294.0512,136.3678 C292.8802,136.3678 291.4782,136.9328 289.8432,138.0628 C289.3792,138.3658 288.9752,138.6278 288.6322,138.8498" id="Fill-71" fill="#A3A3A3"></path>
            <path d="M311.3568,117.6271 C310.4248,116.7391 309.7218,115.7911 309.2458,114.7811 C308.7698,113.7731 308.5318,112.7131 308.5318,111.6031 C308.5318,108.6961 309.8678,106.1531 312.5398,103.9741 C315.2118,101.7941 318.3388,100.7041 321.9218,100.7041 C323.7228,100.7041 326.1218,101.2191 329.1178,102.2481 L329.1178,111.7241 L326.9078,111.7241 C326.7458,109.0891 325.9348,106.9371 324.4758,105.2671 C323.0158,103.5981 321.2318,102.7631 319.1238,102.7631 C317.3998,102.7631 315.9758,103.2911 314.8518,104.3481 C313.7268,105.4031 313.1638,106.7361 313.1638,108.3461 C313.1638,109.8961 313.7258,111.3441 314.8488,112.6911 C315.9508,114.0401 318.5948,116.1201 322.7818,118.9341 C325.9568,121.0601 328.0988,122.7781 329.2088,124.0911 C330.2988,125.4241 330.8438,127.0611 330.8438,128.9991 C330.8438,132.1711 329.3828,134.9941 326.4628,137.4691 C323.5428,139.9421 320.2338,141.1801 316.5358,141.1801 C313.8888,141.1801 310.9178,140.5541 307.6238,139.3031 L307.6238,128.3741 L309.7738,128.3741 C309.7738,131.4421 310.6628,134.0051 312.4418,136.0641 C314.2218,138.1221 316.3348,139.1511 318.7808,139.1511 C321.0258,139.1511 322.7998,138.4961 324.1038,137.1841 C325.4078,135.8721 326.0608,134.2071 326.0608,132.1891 C326.0608,130.4331 325.5238,128.8891 324.4498,127.5571 C323.3768,126.2451 320.9368,124.3281 317.1288,121.8051 C315.0428,120.4331 313.1188,119.0401 311.3568,117.6271" id="Fill-73" fill="#A3A3A3"></path>
            <path d="M59.62,128.0778 C59.569,128.1568 59.517,128.2208 59.466,128.2998 C59.508,128.2818 59.563,128.2618 59.605,128.2588 C59.63,128.2118 59.641,128.1658 59.666,128.1198 C59.637,128.1068 59.621,128.0928 59.62,128.0778" id="Fill-75" fill="#FFFFFF"></path>
            <g id="Group-79" transform="translate(0.000000, 0.343000)">
                <mask id="mask-2" fill="white">
                    <use xlink:href="#path-1"></use>
                </mask>
                <g id="Clip-78"></g>
                <path d="M39.2797,137.7617 C36.0337,139.9887 32.6367,141.9127 29.0877,143.5187 C25.5537,145.1377 21.9517,146.2387 18.2957,146.8187 C14.6387,147.3977 11.2557,147.0727 8.1447,145.8567 C6.1487,145.0647 4.8087,143.9227 4.1097,142.4177 C3.4107,140.9117 3.4427,139.0957 4.1647,137.0017 C5.3337,133.6737 7.4047,131.1617 10.3797,129.4947 C13.3547,127.8277 16.7027,126.7477 20.4387,126.2817 C24.1747,125.8157 28.0067,125.8517 31.9357,126.4207 C35.8637,126.9747 39.3757,127.8607 42.4867,129.0757 C43.5877,129.5167 44.5427,129.9077 45.3677,130.2797 C46.1777,130.6377 46.9607,130.9977 47.6867,131.3767 C45.3377,133.4157 42.5257,135.5347 39.2797,137.7617 M80.5277,87.3677 C82.5837,83.9127 84.8967,80.6627 87.4687,77.6327 C90.0407,74.6027 92.8617,72.0327 95.9427,69.8927 C99.0247,67.7537 102.2057,66.5507 105.5027,66.2987 C107.6257,66.1357 109.2977,66.5927 110.5317,67.6667 C111.7527,68.7277 112.4477,70.3837 112.6207,72.6347 C112.8917,76.1807 112.0107,79.3667 109.9797,82.2057 C107.9467,85.0297 105.3317,87.4937 102.1447,89.5517 C98.9437,91.6247 95.4687,93.2697 91.6907,94.4887 C87.9127,95.7077 84.3677,96.4437 81.0707,96.6957 C79.9107,96.7847 78.8767,96.8487 77.9957,96.8707 C77.1157,96.9087 76.2627,96.9137 75.4497,96.9017 C76.7797,93.9957 78.4717,90.8237 80.5277,87.3677 M178.6817,169.0217 C178.2307,166.2827 176.3937,163.6797 173.1587,161.1997 C170.1947,158.9227 166.5127,157.4947 162.1117,156.9027 C157.7267,156.3237 152.4577,156.6667 148.2847,157.7507 C147.4617,157.9637 147.0827,158.0377 146.3727,158.4217 C146.3727,158.4217 139.7217,161.7197 145.2387,165.1797 C150.7567,168.6557 150.9317,165.7337 150.0637,164.8107 C149.1967,163.9027 148.2947,163.8227 148.2947,163.8227 C148.2947,163.8227 144.9727,163.1917 146.0427,161.7447 C146.4837,161.1717 147.1467,160.7317 147.8067,160.4257 C150.6517,159.4737 154.2297,159.3657 157.5317,159.5467 C162.0917,159.7977 166.4337,161.4897 170.5757,164.6497 C173.1767,166.6547 174.7857,168.7047 175.3887,170.8177 C176.0067,172.9287 175.6097,174.9977 174.2137,177.0237 C172.0617,180.1567 168.8337,182.4277 164.5127,183.8077 C160.2067,185.2007 155.4977,185.9667 150.3987,186.1027 C149.0337,186.1317 147.6827,186.1457 146.3147,186.1157 C144.0007,185.8267 141.1037,185.3597 137.8267,184.5757 C129.5917,182.5977 119.8267,179.0577 97.3237,165.6687 C74.8347,152.2647 53.9957,134.0267 53.9957,134.0267 L53.7287,133.8827 C53.9187,133.7627 54.1247,133.6727 54.3457,133.5807 C54.4147,133.5447 54.4677,133.4957 54.5357,133.4607 C54.5347,133.4457 54.5207,133.4477 54.5057,133.4327 C56.2757,132.0087 57.9127,130.1587 59.4667,127.9567 C59.5167,127.8777 59.5697,127.8137 59.6197,127.7347 C59.5707,127.6487 59.6267,127.4497 59.9067,127.0237 C61.2947,124.8787 62.6207,122.6787 63.8867,120.4377 C65.2897,117.9467 66.6327,115.4007 67.8837,112.7857 C70.2657,107.8217 72.6437,103.0077 75.0187,98.3287 C75.9727,98.3307 76.8967,98.3197 77.7777,98.2977 C78.6567,98.2597 79.7197,98.1937 80.9647,98.0977 C86.1717,97.6997 90.9867,96.6267 95.4187,94.8477 C99.8517,93.0697 103.6437,90.9207 106.8087,88.3847 C109.9597,85.8497 112.3867,83.1607 114.0907,80.3167 C115.7947,77.4727 116.5417,74.7777 116.3467,72.2287 C116.1337,69.4417 115.1567,67.4627 113.4007,66.2787 C111.6587,65.0927 109.3867,64.6067 106.5997,64.8197 C102.6517,65.1217 98.8257,66.2837 95.1537,68.3197 C91.4797,70.3397 88.0297,72.8827 84.7897,75.9187 C81.5647,78.9687 78.6307,82.2967 75.9897,85.9167 C73.3627,89.5207 71.1437,93.0777 69.3447,96.5437 C67.1407,96.5627 64.9907,96.1877 62.9107,95.4177 C60.8157,94.6337 58.9547,93.5617 57.2967,92.1747 C55.6387,90.7867 54.2767,89.1677 53.2227,87.2997 C52.1557,85.4477 51.5467,83.4397 51.3817,81.2787 C51.2807,79.9677 51.4367,78.6517 51.8477,77.3307 C52.2607,76.0247 52.8647,74.8097 53.6767,73.6977 C54.4747,72.6027 55.4867,71.6857 56.7267,70.9607 C57.9527,70.2527 59.3437,69.8307 60.8867,69.7127 C62.2737,69.6067 63.5737,69.6727 64.7707,69.8807 C65.9547,70.1047 67.0177,70.4127 67.9307,70.8077 L68.2727,69.5077 C67.3597,69.1127 66.2517,68.7777 64.9387,68.5337 C63.6247,68.2887 62.2807,68.2127 60.8937,68.3187 C59.2807,68.4417 57.7627,68.8877 56.3417,69.6567 C54.9347,70.4237 53.7557,71.3837 52.8057,72.5507 C51.8687,73.7007 51.1337,75.0617 50.6257,76.6147 C50.1187,78.1677 49.9267,79.7567 50.0517,81.3807 C50.2397,83.8397 50.8797,86.0697 51.9557,88.0407 C53.0177,90.0127 54.4017,91.7217 56.1037,93.1357 C57.7927,94.5647 59.6997,95.6787 61.8257,96.4897 C63.9507,97.2867 66.1687,97.8067 68.4607,98.0057 C65.7217,103.5077 63.1077,108.9537 60.6487,114.3887 C58.2017,119.8077 51.7177,126.0317 48.6547,130.2677 C47.7967,129.8397 46.9417,129.4547 46.1317,129.0967 C45.3207,128.7247 44.3217,128.3217 43.1477,127.8567 C38.2457,125.9227 33.4197,124.7937 28.6677,124.4527 C23.9307,124.1107 19.6107,124.3957 15.7227,125.2937 C11.8347,126.1907 8.5527,127.5667 5.8737,129.3897 C3.1967,131.2287 1.4507,133.3417 0.6087,135.7297 C-0.3023,138.3327 -0.1883,140.5577 0.9347,142.4057 C2.0567,144.2387 3.9327,145.6837 6.5587,146.7127 C10.2867,148.1807 14.2347,148.8077 18.3877,148.5797 C22.5417,148.3667 26.6947,147.5847 30.8487,146.2467 C35.0027,144.9247 38.9977,143.1947 42.8357,141.0727 C46.6737,138.9647 50.1027,136.7227 53.1257,134.3787 L53.1397,134.3777 C53.1397,134.3777 107.7897,183.7567 146.6227,188.8497 C149.5207,189.1377 155.4347,189.2397 163.4877,186.9737 C164.2347,186.6767 165.0317,186.3167 165.9677,185.8847 C170.4897,183.7997 174.0377,180.8747 176.6247,177.1097 C178.4427,174.4507 179.1337,171.7597 178.6817,169.0217" id="Fill-77" fill="#FFFFFF"></path>
            </g>
            <path d="M59.9071,127.3664 C59.6271,127.7924 59.5711,127.9914 59.6201,128.0774 C61.0941,125.9564 62.5001,123.4954 63.8861,120.7804 C62.6201,123.0214 61.2941,125.2214 59.9071,127.3664" id="Fill-80" fill="#FFFFFF"></path>
        </g>
    </g>
</svg>